<?xml version="1.0" encoding="utf-8"?>
<!-- Generator: Adobe Illustrator 24.3.0, SVG Export Plug-In . SVG Version: 6.00 Build 0)  -->
<svg version="1.1" id="Layer_1" xmlns="http://www.w3.org/2000/svg" xmlns:xlink="http://www.w3.org/1999/xlink" x="0px" y="0px"
	 viewBox="0 0 80 80" enable-background="new 0 0 80 80" xml:space="preserve">
<path fill="#18CEF6" d="M24.381,59.421h0.059v5.407l10.823-10.039c0,0,26.53,0.293,28.528-0.242
	c1.998-0.535,2.543-2.672,2.543-8.194c0-4.758-0.224-20.544-0.364-25.652H20.313c-1.732,0-2.41,0.665-2.41,2.365v27.087h6.479
	V59.421z"/>
<g>
	<path fill="#233251" d="M19.536,66.938c-0.494-0.544-0.728-1.279-0.726-2.058l0,0l-0.002-9.022h-2.309
		c-2.335-0.002-4.226-1.856-4.228-4.145l0,0V19.147c0-2.291,1.892-4.145,4.228-4.147l0,0h46.274v1.07v1.068H16.499
		c-1.131,0.002-2.047,0.9-2.048,2.009l0,0v32.566c0.002,1.107,0.918,2.005,2.048,2.007l0,0h4.49v11.16
		c0.001,0.382,0.105,0.563,0.178,0.64l0,0c0.075,0.077,0.133,0.113,0.309,0.119l0,0c0.196,0.004,0.561-0.096,0.988-0.448l0,0
		c1.791-1.485,10.459-9.671,12.042-11.172l0,0l0.317-0.299h27.95c1.13-0.002,2.045-0.9,2.047-2.007l0,0l-0.001-32.566
		c-0.002-1.11-0.916-2.008-2.046-2.009l0,0V16.07V15c2.333,0.002,4.226,1.856,4.226,4.147l0,0L67,51.713
		c-0.001,2.289-1.893,4.143-4.227,4.145l0,0H35.704c-2.197,2.075-9.984,9.428-11.835,10.968l0,0c-0.73,0.599-1.55,0.949-2.392,0.951
		l0,0c-0.008,0-0.015,0-0.023,0l0,0C20.74,67.776,20.019,67.481,19.536,66.938L19.536,66.938z"/>
</g>
<g>
	<path fill="#FFFFFF" d="M48.082,36.553c-0.954,0-1.726-0.756-1.726-1.691l0,0c0-0.934,0.772-1.692,1.726-1.692l0,0h2.361v1.068
		v0.179v-0.179V33.17c0.952,0,1.724,0.758,1.724,1.692l0,0c0,0.935-0.772,1.691-1.724,1.691l0,0H48.082L48.082,36.553z
		 M29.193,36.553c-0.954,0-1.725-0.756-1.725-1.691l0,0c0-0.934,0.771-1.692,1.725-1.692l0,0h2.362v1.068v0.179v-0.179V33.17
		c0.952,0,1.725,0.758,1.725,1.692l0,0c0,0.935-0.773,1.691-1.725,1.691l0,0H29.193L29.193,36.553z"/>
</g>
</svg>
